<svg preserveAspectRatio="none" overflow="visible" style="display: block;" width="38.1716" height="37.7695" viewBox="0 0 38.1716 37.7695" fill="none" xmlns="http://www.w3.org/2000/svg">
<g id="Frame 128">
<g id="Vector 4">
<path d="M1.4593 30.7695V6.52902C1.4593 3.53013 3.96705 1.14052 6.96246 1.28513L31.9807 2.49289C34.8339 2.63063 37.0534 5.02428 36.9756 7.87974L36.3481 30.9124C36.2707 33.7552 33.9439 36.0195 31.1001 36.0195H6.7093C3.80981 36.0195 1.4593 33.669 1.4593 30.7695Z" fill="#FAFAFA"/>
<path d="M5.47749 3.24844C5.38996 3.30333 5.21062 3.2568 5.09499 3.30873C4.62255 3.53187 4.41484 3.59316 4.02833 3.90613C3.73929 4.1401 3.31613 4.74644 3.06277 5.34398C2.79183 5.93216 2.64873 6.51792 2.25313 6.52902C2.25311 6.52902 2.25309 6.52902 2.25307 6.52902C2.24534 6.52902 2.23751 6.52877 2.2296 6.52826C2.07808 6.52115 1.91978 6.28568 1.75396 6.2369C1.58932 6.18784 0.479258 6.16507 0.469578 5.7105C0.423197 5.03198 1.25198 3.69613 1.44021 3.44348C1.54611 3.24544 1.61721 2.95498 1.78506 2.71041C2.34614 1.93038 2.76455 1.67076 3.36469 0.970939C3.7437 0.909103 4.11816 0.884448 4.48049 0.894499C4.86539 0.661482 5.55652 0.691439 5.806 0.65082C6.01404 0.611549 6.12731 0.485647 6.35453 0.466208C6.51846 0.45255 6.74183 0.496487 6.99845 0.539473C7.11976 0.561804 7.25135 0.578966 7.3914 0.579285C8.04634 0.581341 8.17683 0.292773 8.57075 0.274346C8.97922 0.255316 9.60385 0.445731 10.1277 0.367258C10.1943 0.338038 10.2609 0.308817 10.3276 0.279597C10.2845 0.204159 10.2414 0.12872 10.1983 0.053282C10.4613 0.0318282 10.5664 0.187243 10.8064 0.201551C11.0888 0.218467 11.2398 0.0832263 11.4299 0.0930594C11.5856 0.10124 11.7912 0.225456 11.9935 0.228062C12.2884 0.232444 12.232 0.064703 12.3919 0.0415478C12.4557 0.0326341 13.6288 -0.00180006 13.6948 7.36713e-05C14.1965 0.0177891 14.2293 0.245238 14.6282 0.284245C15.7346 0.391524 16.8818 0.264396 17.9109 0.245102C18.3705 0.236429 18.8478 0.272596 19.3028 0.330686C18.5555 0.872675 20.1259 1.39837 19.5741 0.467188C20.076 0.620102 20.4481 0.393882 20.9279 0.458328C21.2381 0.500241 21.4478 0.635779 21.8928 0.653981C22.6826 0.685479 23.5633 0.371485 23.7593 1.02533C24.6915 0.956733 25.4829 1.22868 25.8443 0.677276C26.0849 0.654143 26.681 1.02175 26.9468 1.08061C27.1982 1.1361 29.1358 1.38263 29.4535 1.40651C29.7713 1.43039 30.3278 1.46655 30.5982 1.42969C30.9379 1.38434 31.2015 0.807124 31.7677 1.52422C31.8619 1.52125 31.9479 1.51926 32.0277 1.5183C32.6341 1.52636 32.9518 1.59983 33.5645 1.8524C33.6924 1.90802 33.6735 2.01053 33.7479 2.03654C33.9009 2.09022 34.1893 2.12162 34.4585 2.24604C34.9032 2.45325 35.0061 2.79672 35.1425 2.48963C35.446 2.62167 35.7425 2.7797 36.0279 2.9628C36.0726 3.08855 36.1126 3.21428 36.1479 3.3398C36.3193 3.41415 36.4897 3.49763 36.6581 3.59036C36.1787 3.72852 37.1144 4.52682 37.1106 4.05715C37.4014 4.65589 37.5929 5.28746 37.6823 5.91823C37.1746 5.98247 37.9039 7.23986 38.1559 7.12905C38.1625 7.20345 38.1677 7.27825 38.1716 7.35232C38.1411 7.54398 38.124 7.72591 38.1097 7.91064C38.0768 8.2813 38.1058 8.66148 38.0249 9.11916C37.9108 9.76391 37.8599 9.70171 37.6059 9.8918C37.616 10.0445 37.6261 10.1973 37.6362 10.35C38.2959 11.1679 37.1198 10.9945 37.6053 12.3776C37.1651 12.8032 37.3607 13.8874 37.4711 14.6058C37.4839 14.6894 37.567 14.6931 37.5896 14.8045C37.6439 15.077 37.5182 15.7652 37.787 15.7489C37.7029 15.986 37.6188 16.2231 37.5347 16.4602C37.5781 16.6571 37.6216 16.854 37.665 17.0508C37.7487 17.0521 37.8325 17.0534 37.9162 17.0547C37.6202 17.4407 37.713 18.0624 37.6364 18.3657C37.621 18.4261 37.5051 18.436 37.4685 18.624C37.4251 18.8436 37.4481 19.2557 37.4048 19.5177C37.5299 19.6234 37.6551 19.7291 37.7802 19.8348C37.8368 20.3069 37.4947 20.4629 37.4609 20.7383C37.455 20.7879 37.4545 21.6955 37.4604 21.7446C37.5066 22.1462 37.7974 22.0407 37.7042 23.1961C37.6875 23.4018 37.5834 23.5658 37.5743 23.7519C37.5582 24.0807 37.7569 25.0782 37.9633 25.1618C37.6914 25.5537 37.769 26.6242 37.685 26.9366C37.6593 27.0309 37.4924 27.0478 37.4491 27.3386C37.4138 27.5743 37.5303 28.187 37.4999 28.4863C37.4669 28.8041 37.3241 28.9139 37.3104 29.0563C37.2975 29.1908 37.4069 29.3182 37.4013 29.5018C37.3832 30.0302 37.2156 30.5086 37.1772 30.935C37.1738 30.977 37.1709 31.0184 37.1687 31.0593C37.1277 31.8036 37.2917 32.5446 37.1681 33.2455C37.0835 33.3953 36.9499 33.5163 36.8707 33.6723C35.9207 35.6503 33.5767 37.0959 31.426 37.0761C31.3301 37.0778 31.2201 37.074 31.1001 37.0643C30.1757 36.9747 28.5582 36.6719 29.0507 37.3546C28.7649 37.4871 26.6874 37.1821 26.2922 37.1775C25.8971 37.173 25.5839 37.3086 25.2734 37.3106C24.3363 37.3165 23.6764 37.2188 22.5357 37.3369C22.2411 37.3678 21.9254 37.5285 21.7509 37.5266C21.5408 37.524 21.3146 37.3686 21.0424 37.3587C20.3935 37.3364 19.1841 37.3875 18.5615 37.3606C18.4478 37.3554 18.4079 37.2189 18.2453 37.1763C17.6122 37.0096 16.9025 37.0241 17.0281 37.4597C16.2166 37.2124 15.4659 37.438 14.7139 37.4518C13.1239 37.48 10.2274 37.3784 8.84218 37.5614C7.9697 37.6768 7.99105 37.8719 6.7093 37.7042C6.70747 37.7041 6.70565 37.7039 6.70382 37.7037C6.32825 37.6651 5.95923 37.589 5.5247 37.4682C4.47938 37.172 3.82826 36.4665 2.94409 36.3975C2.05518 35.6633 1.38135 34.9688 1.26731 34.0741C1.14145 34.0388 1.01529 33.999 0.889091 33.9544C0.820087 33.8331 0.754667 33.7091 0.693391 33.5835C0.751955 33.5079 0.811608 33.4337 0.872311 33.3607C0.542008 32.6017 0.0704991 31.6108 0.0148811 30.7695C0.00515199 30.6737 -0.000313163 30.5823 1.39475e-05 30.4964C0.00395072 29.3729 0.139827 26.4792 0.254653 25.4138C0.31563 24.8482 0.13338 24.8178 0.508011 24.494C0.481949 24.3675 0.455886 24.241 0.429824 24.1145C0.347793 24.0353 0.265762 23.9561 0.18373 23.877C0.180449 23.1513 0.307868 22.2907 0.306564 21.5994C0.303939 20.3398 0.0781697 18.4483 0.226455 17.1834C0.263849 16.8662 0.433016 16.4697 0.431106 16.1591C0.428482 15.7071 0.14775 15.5972 0.142501 15.0236C0.133971 14.0349 0.460099 12.1936 0.435165 11.2591C0.427942 10.9816 0.323486 10.8521 0.312332 10.6604C0.264433 9.85681 0.272939 9.19702 0.111525 8.42643C0.380547 7.59902 0.727789 7.6705 1.07817 7.41408C1.34262 7.21975 1.95548 6.62386 2.18709 6.53927C2.34981 6.47986 2.55913 6.70171 2.73824 6.61844C2.88128 7.60976 2.72381 8.02622 2.47185 8.83118C2.48189 10.3177 2.49193 11.8042 2.50197 13.2908C2.4042 13.426 2.30644 13.5613 2.20867 13.6965C2.20845 13.6965 2.20824 13.6965 2.20803 13.6965C2.0952 14.2674 2.34698 14.5094 2.40413 14.8172C2.95136 17.7648 2.52306 23.5662 2.46138 26.8111C2.44827 27.5104 2.58001 29.785 2.42122 30.2648C2.37987 30.389 2.22911 30.4236 2.22255 30.5557C2.22796 30.627 2.23337 30.6982 2.23878 30.7695C2.3208 31.7188 2.71167 32.5998 3.31032 33.2674C3.95326 34.4287 5.36162 35.1311 6.7093 35.059C7.5349 35.0336 8.35883 35.004 9.17567 34.992C15.795 34.8942 22.3482 34.7754 28.8592 34.8114C29.5437 34.8154 30.3285 34.7837 31.1001 34.7658C31.5967 34.7516 32.069 34.6515 32.4813 34.5345C32.8478 34.4234 33.1367 34.5622 33.479 34.1103C33.5214 34.1602 33.564 34.2099 33.6068 34.2594C33.9494 33.9063 34.0616 33.5949 34.3581 33.1832C34.6438 32.8495 35.0639 31.7912 35.1071 31.4087C35.1476 31.215 35.2595 31.3038 35.2769 31.1137C35.2817 31.0499 35.2798 30.9716 35.2715 30.8831C35.24 30.4328 35.149 29.7797 35.1612 29.3284C35.1751 28.8197 35.3388 27.966 35.3291 27.5743C35.2953 26.1639 35.1291 24.6241 35.2257 23.1246C35.2528 22.7104 35.4253 22.1814 35.4244 22.0515C35.4222 21.7976 35.2708 21.7179 35.2557 21.5469C35.1796 20.6788 35.3987 19.3348 35.429 18.4867C35.5279 15.7233 35.5407 12.7932 35.6439 10.0418C35.6672 9.41986 35.6887 8.65048 35.7141 7.84538C35.7742 6.72875 35.2423 5.60276 34.7379 4.9772C34.5707 4.76486 34.7385 4.69583 34.5636 4.53518C34.3645 4.36041 34.1803 4.37115 34.0785 4.31113C33.6216 4.0274 32.7235 3.71063 31.9224 3.69937C31.3594 3.67643 30.8479 3.63953 30.5023 3.58175C30.316 3.55043 30.1864 3.41225 30.0743 3.40731C30.0175 3.40457 29.8849 3.4882 29.7062 3.48878C28.1286 3.49408 26.9837 3.3863 25.4432 3.28106C22.4927 3.08016 19.0627 3.08207 15.9646 2.84187C15.2896 2.78958 14.8386 2.50685 14.7434 2.50488C14.5346 2.50006 14.3926 2.66873 13.9681 2.69159C12.5566 2.76596 10.6739 2.48777 9.33363 2.51106C8.67151 2.52245 7.75376 2.70096 7.10186 2.71879C7.041 2.72046 6.97059 2.71993 6.89329 2.71784C6.46587 2.69001 5.74736 2.77096 5.63458 2.9085C5.55483 2.9943 5.57262 3.18788 5.47749 3.24844ZM22.3597 0.823023C22.2527 1.12135 23.2361 0.916605 22.8796 0.736478C22.7993 0.69592 22.3874 0.745578 22.3597 0.823023ZM34.7101 35.4713C34.7708 35.5338 34.8319 35.5961 34.8933 35.658C34.9899 35.5374 35.0812 35.4139 35.1668 35.2883C35.0703 35.3052 34.9742 35.3194 34.8787 35.3309C34.8234 35.3787 34.7672 35.4255 34.7101 35.4713Z" fill="#0A0A0A"/>
</g>
<g id="Group 647">
<g id="Vector 50">
<path d="M16.4593 28.5195L17.4593 15.5195L20.4593 16.0195L20.9593 28.5195H16.4593Z" fill="#171717"/>
<path d="M18.8545 17.0174C18.8132 17.0257 18.7716 16.9366 18.7264 16.9247C18.5372 16.8742 18.4752 16.8069 18.3066 16.7464C18.0564 16.6568 17.2735 16.6343 17.3661 16.0788C17.3661 16.0788 17.3661 16.0787 17.3661 16.0787C17.367 16.0733 17.368 16.0678 17.3691 16.0622C17.3894 15.9568 17.4738 15.8522 17.5034 15.7341C17.533 15.6159 17.6546 14.8417 17.7543 14.8137C17.8979 14.7788 18.1865 15.0306 18.2594 15.0337C18.3093 15.0358 18.3812 14.9756 18.4458 14.9735C18.654 14.9669 18.7509 15.0358 18.9643 14.8752C19.0202 14.9879 19.0761 15.1006 19.1319 15.2133C19.2345 15.1825 19.356 15.3391 19.4148 15.3414C19.463 15.3432 19.5039 15.2683 19.5538 15.2728C19.6098 15.2774 19.6802 15.3774 19.7828 15.3812C19.9509 15.3878 20.0148 15.1852 20.118 15.1753C20.225 15.1651 20.3655 15.3045 20.5084 15.2532C20.5286 15.2331 20.5488 15.213 20.569 15.1929C20.5658 15.1394 20.5627 15.0858 20.5595 15.0322C20.586 15.0272 20.604 15.0401 20.6194 15.0586L21.458 15.2643L21.4326 15.9805C21.4081 16.0113 21.3675 16.0385 21.3678 16.0765C21.3683 16.1487 21.4714 16.1814 21.4729 16.23C21.474 16.2697 21.3947 16.3269 21.4018 16.3782C21.4119 16.4531 21.5289 16.4319 21.5525 16.4715C21.5617 16.4873 21.6385 16.7829 21.6401 16.7997C21.6499 16.9275 21.4893 16.9451 21.4793 17.0477C21.4522 17.3323 21.594 17.6176 21.6536 17.8774C21.6803 17.9934 21.6758 18.1158 21.6547 18.2334C21.2353 18.0663 20.9308 18.4854 21.5696 18.3076C21.483 18.441 21.6608 18.526 21.6363 18.6501C21.6202 18.7304 21.533 18.789 21.5399 18.9024C21.5527 19.1037 21.8157 19.3139 21.3586 19.3902C21.4491 19.6235 21.2906 19.835 21.6996 19.904C21.7268 19.964 21.4915 20.13 21.4614 20.1997C21.4331 20.2656 21.3439 20.7663 21.341 20.8478C21.3382 20.9292 21.3372 21.0716 21.3756 21.1386C21.423 21.2227 21.846 21.266 21.3604 21.4386C21.4073 21.6149 21.3957 21.6788 21.3452 21.8465C21.3361 21.8768 21.2632 21.8832 21.2639 21.9006C21.2653 21.9367 21.3217 21.9958 21.3309 22.0599C21.3459 22.1653 21.1947 22.2318 21.4288 22.2106C21.471 22.2788 21.5131 22.347 21.5552 22.4152C21.5109 22.4414 21.4666 22.4677 21.4223 22.494C21.4731 22.5293 21.524 22.5646 21.5748 22.5999C21.2336 22.5697 21.4444 22.8242 21.6358 22.7312C21.571 22.8692 21.5061 23.0072 21.4413 23.1452C21.0547 23.1418 21.4087 23.4439 21.6174 23.4089C21.6177 23.4244 21.618 23.4399 21.6183 23.4553C21.5212 23.5949 21.6101 23.7159 21.5478 23.8838C21.4856 24.0516 21.4474 24.0376 21.2719 24.0949C21.2836 24.1333 21.2954 24.1718 21.3071 24.2102C21.8018 24.3946 20.9579 24.3923 21.3451 24.7264C21.0438 24.8502 21.2154 25.1186 21.3154 25.2972C21.3271 25.318 21.3864 25.316 21.4059 25.3435C21.4526 25.4108 21.3834 25.5901 21.5746 25.5764C21.5217 25.6396 21.4687 25.7028 21.4157 25.766C21.4525 25.8145 21.4894 25.863 21.5262 25.9115C21.5859 25.9088 21.6457 25.9062 21.7054 25.9035C21.5058 26.0121 21.5903 26.1667 21.5448 26.2465C21.5355 26.2624 21.4532 26.269 21.4326 26.3181C21.4082 26.3754 21.4368 26.4793 21.4137 26.5473C21.5061 26.5698 21.5984 26.5922 21.6908 26.6146C21.7451 26.7325 21.5058 26.7843 21.4899 26.8554C21.4871 26.8682 21.5137 27.0988 21.5193 27.1111C21.5642 27.2115 21.7684 27.1744 21.7362 27.4712C21.7304 27.524 21.661 27.5694 21.66 27.617C21.6583 27.7011 21.8295 27.9474 21.9792 27.9613C21.7969 28.0705 21.884 28.3397 21.8334 28.4221C21.8214 28.4412 21.7487 28.4516 21.7055 28.4896L21.6761 29.3204L20.9593 29.2663C20.9484 29.2528 20.9348 29.2419 20.9175 29.236C20.8572 29.2154 20.7017 29.3106 20.6252 29.2946C20.5439 29.2773 20.5149 29.1775 20.4785 29.1704C20.4441 29.1639 20.4124 29.2444 20.3655 29.244C20.2192 29.2412 20.0867 29.1115 19.9711 29.1091C19.8038 29.1053 19.6561 29.3439 19.5162 29.4498C19.4814 29.4343 19.4473 29.3831 19.4109 29.3827C18.9604 29.3752 18.4522 29.3312 18.0004 29.2801C17.7907 29.2567 17.2691 28.9329 17.4083 29.4732C17.3354 29.5678 16.8054 29.3499 16.7046 29.3467C16.61 29.3436 16.5338 29.4287 16.4593 29.4404L15.4013 29.3605L15.5411 28.4488C15.5407 28.4439 15.5406 28.439 15.5409 28.4341C15.555 28.1954 15.6375 28.0329 15.5757 27.7363C15.5595 27.6597 15.4512 27.5706 15.456 27.5263C15.462 27.473 15.5771 27.424 15.5894 27.3553C15.618 27.1915 15.6053 26.881 15.6366 26.7242C15.6426 26.6955 15.7405 26.6929 15.7741 26.6538C15.9052 26.5019 15.9087 26.3206 15.596 26.3287C15.788 26.1358 15.6421 25.9325 15.6469 25.7405C15.6579 25.3345 15.787 24.6033 15.6838 24.241C15.6186 24.0125 15.479 24.0075 15.6243 23.6896C15.6565 23.619 15.698 23.5495 15.7365 23.4639C15.8271 23.2632 16.0988 23.0936 15.8011 22.9125C15.8991 22.6894 15.8562 22.5024 16.1342 22.3527C16.0722 22.3277 16.0102 22.3028 15.9482 22.2779C15.9488 22.2496 15.9494 22.2214 15.9499 22.1932C16.0112 22.1891 16.0725 22.185 16.1338 22.1808C16.1656 21.9807 15.9361 21.7061 15.9511 21.5358C15.9759 21.2503 16.1293 20.5217 16.2319 20.257C16.2864 20.1165 16.1572 20.0987 16.4303 20.0369C16.4142 20.0033 16.3981 19.9697 16.382 19.9361C16.3252 19.9114 16.2683 19.8868 16.2114 19.8622C16.2233 19.6774 16.3309 19.4655 16.3435 19.2896C16.3663 18.9691 16.2425 18.4756 16.3728 18.1619C16.4057 18.0833 16.5339 17.9917 16.5386 17.9126C16.5456 17.7975 16.3478 17.7542 16.3553 17.608C16.3686 17.356 16.6369 16.9056 16.6374 16.6665C16.6377 16.5955 16.5658 16.5568 16.5616 16.5075C16.5432 16.3005 16.5622 16.1331 16.4623 15.9282C16.6701 15.7325 16.916 15.7697 17.1706 15.7237C17.3627 15.6888 17.8108 15.5708 17.9774 15.5619C18.0945 15.5557 18.2392 15.6236 18.3684 15.6123C18.4509 15.8723 18.3306 15.9696 18.1354 16.1605C18.1134 16.5392 18.0915 16.9178 18.0696 17.2965C17.9973 17.3255 17.925 17.3546 17.8527 17.3836C17.8526 17.3836 17.8524 17.3836 17.8523 17.3836C17.7608 17.5226 17.9353 17.598 17.97 17.6794C18.3021 18.4591 17.8835 19.9113 17.7761 20.7333C17.7531 20.9104 17.8024 21.4962 17.6799 21.6096C17.6481 21.6389 17.54 21.6394 17.5328 21.6727C17.5735 21.9779 17.6143 22.2832 17.655 22.5884C17.4407 23.1932 17.5293 23.8423 17.5072 24.4666C17.4581 25.8509 17.4199 27.2246 17.3235 28.5859L16.4593 27.6527C16.7597 27.6509 17.0598 27.6519 17.3594 27.6566C17.6804 27.6618 18.0878 27.5811 18.4021 27.6331C18.5332 27.6547 18.5879 27.8276 18.7602 27.6987C18.762 27.7453 18.7638 27.7919 18.7656 27.8385C18.916 27.7822 19.0121 27.6762 19.1806 27.6654C19.3226 27.6565 19.6982 27.6496 19.8237 27.6674C19.8887 27.6763 19.8645 27.7634 19.9251 27.7629C20.029 27.7615 20.2509 27.6412 20.3942 27.6412C20.524 27.6412 20.7429 27.7415 20.8427 27.7269C20.8812 27.7214 20.9201 27.7148 20.9593 27.7074L20.1479 28.5519C20.0732 28.228 19.9446 27.8841 19.9665 27.5409C19.9735 27.4348 20.0809 27.2943 20.0764 27.2613C20.0673 27.1969 19.9569 27.182 19.9411 27.1391C19.8611 26.9213 19.9776 26.5721 19.9741 26.3556C19.9627 25.65 19.885 24.9052 19.8771 24.2026C19.872 23.7587 19.8233 23.0227 19.8893 22.61C19.9036 22.521 20.0245 22.5398 20.0216 22.4656C20.0183 22.3835 19.9354 22.3422 19.9273 22.304C19.8708 22.04 19.7653 21.4564 19.8382 21.2021C19.8522 21.1537 19.9448 21.1152 19.9434 21.0866C19.9428 21.0721 19.8773 21.0419 19.8689 20.9967C19.7948 20.5974 19.8205 20.3031 19.8268 19.9087C19.8383 19.1533 19.6839 18.2848 19.7169 17.4905C19.724 17.3174 19.9053 17.1917 19.9025 17.1675C19.8966 17.1144 19.7701 17.0853 19.7349 16.9788C19.6455 16.7055 19.6929 16.3528 19.6844 16.0505L20.3318 16.7845C20.2434 16.7687 20.1583 16.7586 20.0788 16.76C19.9075 16.7628 19.6528 16.8815 19.4834 16.8889C19.3481 16.8949 19.0497 16.7819 18.9803 16.8411C18.9381 16.8768 18.8995 17.0077 18.8545 17.0174ZM21.4403 19.0276C21.223 19.0126 21.4127 19.2533 21.5252 19.1557C21.5505 19.1337 21.4967 19.0314 21.4403 19.0276ZM18.808 29.0035C18.8103 29.0653 18.8126 29.1272 18.8148 29.189C18.8474 29.1633 18.88 29.1376 18.9125 29.1118C18.8942 29.0746 18.8759 29.0375 18.8576 29.0003C18.8411 29.0014 18.8246 29.0024 18.808 29.0035Z" fill="#171717"/>
</g>
<g id="Ellipse 296">
<circle cx="18.9593" cy="10.5195" r="2.5" fill="#171717"/>
<path d="M22.2938 9.45857C22.3133 9.48033 22.262 9.53433 22.2671 9.56434C22.2873 9.69169 22.2541 9.74778 22.2518 9.86317C22.2578 10.0288 22.3705 10.5269 21.9129 10.5195C21.9129 10.5195 21.9129 10.5195 21.9129 10.5195C21.9085 10.5195 21.904 10.5194 21.8995 10.5193C21.8137 10.5174 21.7198 10.4826 21.6226 10.4795C21.5254 10.4765 20.8987 10.4873 20.8625 10.4557C20.8157 10.4108 20.9647 10.2777 20.9527 10.2486C20.9453 10.2303 20.8856 10.216 20.8718 10.1949C20.8272 10.128 20.8582 10.077 20.6923 10.0546C20.7647 10.0093 20.8357 9.96096 20.905 9.90947C20.8583 9.88618 20.9412 9.79797 20.9269 9.77731C20.9156 9.76102 20.8515 9.77428 20.8416 9.75775C20.8302 9.73961 20.8813 9.68112 20.8547 9.64846C20.8111 9.59508 20.6553 9.66132 20.6201 9.64012C20.584 9.6188 20.6338 9.52162 20.5575 9.512C20.5386 9.51685 20.5199 9.52186 20.5012 9.52704C20.4683 9.55323 20.4352 9.57919 20.4019 9.60492C20.374 9.5974 20.4406 9.54256 20.4301 9.52431C20.4178 9.50286 20.3442 9.53983 20.3355 9.52709C20.3285 9.51665 20.3703 9.46349 20.3564 9.45207C20.3365 9.4355 20.2657 9.49802 20.2441 9.49904C20.2356 9.49837 20.1369 9.46233 20.1329 9.46002C20.1045 9.43439 20.1955 9.34322 20.1799 9.31118C20.1352 9.22215 19.9927 9.23798 19.9064 9.22385C19.8673 9.21697 19.8417 9.19043 19.8224 9.15383C20.0553 8.91075 20.0644 8.61331 19.8409 9.08233C19.8426 8.99727 19.7469 9.10317 19.7254 9.06508C19.7109 9.04011 19.727 8.9679 19.6923 8.95356C19.6272 8.92709 19.4954 9.09494 19.6017 8.74245C19.5038 8.77564 19.4654 8.62766 19.3591 8.93576C19.3377 8.95061 19.3309 8.75086 19.3109 8.72041C19.2963 8.69009 19.1294 8.57955 19.0974 8.57468C19.0676 8.56755 19.0145 8.56016 18.9887 8.58842C18.9782 8.59968 18.9686 8.64263 18.9593 8.68222C18.9387 8.765 18.9251 8.83271 18.8773 8.56816C18.8126 8.60312 18.7909 8.59368 18.7237 8.55517C18.7115 8.54829 18.703 8.49047 18.6962 8.49128C18.6821 8.49307 18.6649 8.53902 18.6417 8.54807C18.604 8.56284 18.5582 8.44671 18.5977 8.63034C18.5787 8.66601 18.5608 8.70199 18.5443 8.73812C18.5279 8.70472 18.511 8.67148 18.4936 8.63843C18.4898 8.68006 18.4868 8.72164 18.4846 8.76315C18.4294 8.49609 18.3776 8.67783 18.4531 8.81839C18.3935 8.77741 18.3303 8.73936 18.2636 8.70473C18.1589 8.41313 18.143 8.71553 18.2252 8.86373C18.2203 8.86567 18.2153 8.86762 18.2104 8.8696C18.1329 8.81475 18.123 8.89443 18.046 8.87418C17.9672 8.85541 17.9566 8.82742 17.8662 8.71584C17.8571 8.73088 17.8483 8.74598 17.8397 8.76112C17.9913 9.12793 17.6182 8.56317 17.6813 8.89056C17.4942 8.72529 17.4813 8.90523 17.4836 9.00814C17.4835 9.02027 17.5167 9.05427 17.5193 9.07238C17.5253 9.11558 17.434 9.1237 17.5488 9.2256C17.5011 9.21199 17.4526 9.19976 17.4035 9.18897C17.412 9.22185 17.4213 9.25432 17.4312 9.28632C17.4685 9.31633 17.5058 9.34634 17.5431 9.37636C17.3935 9.30154 17.4067 9.38827 17.359 9.38854C17.3493 9.3887 17.2946 9.35157 17.2691 9.35683C17.2388 9.36291 17.2325 9.40788 17.2011 9.41921C17.2576 9.46678 17.3147 9.51347 17.3725 9.55927C17.3852 9.61491 17.2106 9.53212 17.1839 9.5493C17.1788 9.55221 17.1504 9.63736 17.1526 9.64353C17.1655 9.69318 17.3175 9.75157 17.246 9.83204C17.2333 9.84656 17.1747 9.8403 17.1665 9.85582C17.151 9.88411 17.2463 10.0098 17.36 10.0473C17.2069 10.0366 17.2436 10.1433 17.1968 10.1605C17.1822 10.1659 17.0885 10.1491 17.0637 10.1723C17.0432 10.1917 17.1097 10.2589 17.094 10.2838C17.0767 10.3106 16.9963 10.3133 16.9893 10.3264C16.9829 10.3389 17.046 10.3562 17.0444 10.3731C17.0382 10.4255 16.933 10.4714 16.931 10.5174C16.931 10.5181 16.931 10.5188 16.931 10.5195C16.9321 10.5853 17.1226 10.6325 17.2099 10.6701C17.1986 10.6827 17.1589 10.698 17.1598 10.7107C17.1693 10.8652 17.1756 11.043 17.1974 11.2092C17.2018 11.2812 17.0643 11.579 17.4223 11.3299C17.4968 11.3138 17.4387 11.553 17.4619 11.5861C17.4806 11.6166 17.5591 11.5917 17.5761 11.6115C17.6279 11.6708 17.6262 11.7537 17.7436 11.7743C17.7742 11.7794 17.8554 11.7293 17.8647 11.7391C17.8759 11.7512 17.8315 11.8303 17.8457 11.8496C17.8795 11.8955 17.9787 11.9325 18.014 11.973C18.0203 11.9807 17.9808 12.0481 17.9801 12.0765C17.9776 12.1878 18.0428 12.2139 18.1517 11.9897C18.1436 12.1466 18.262 12.0602 18.319 12.075C18.4393 12.1123 18.6637 12.2255 18.7865 12.1293C18.8623 12.0698 18.861 11.9591 18.955 12.057C18.9564 12.0584 18.9579 12.0599 18.9593 12.0614C18.9796 12.0822 19.0008 12.1086 19.0272 12.1313C19.0897 12.1891 19.184 12.3866 19.1993 12.133C19.2817 12.1858 19.3247 12.1297 19.4347 12.3207C19.4286 12.2696 19.422 12.2186 19.4147 12.1677C19.4232 12.164 19.4316 12.1603 19.4399 12.1566C19.4563 12.2024 19.473 12.2482 19.4898 12.2939C19.5649 12.2855 19.5762 12.0676 19.623 12.0484C19.7066 12.0194 19.9493 11.9663 20.064 11.9555C20.1255 11.9517 20.0597 11.8705 20.2203 12.0153C20.2199 11.9962 20.2192 11.9772 20.2182 11.9582C20.1928 11.9181 20.167 11.8784 20.1408 11.8389C20.1854 11.7967 20.2903 11.7947 20.3315 11.7472C20.4096 11.6594 20.3971 11.4558 20.5216 11.4052C20.5536 11.3923 20.6559 11.4061 20.6681 11.3794C20.6857 11.3407 20.5451 11.2631 20.5617 11.2183C20.5904 11.1455 20.8191 11.048 20.8244 10.9551C20.8262 10.929 20.7703 10.9048 20.7674 10.887C20.7545 10.8123 20.7677 10.753 20.6819 10.6792C20.8409 10.6225 21.038 10.6353 21.2394 10.6175C21.3916 10.6054 21.7431 10.5355 21.8752 10.5209C21.9682 10.512 22.0877 10.5455 22.1901 10.5335C22.2702 10.6897 22.1745 10.7583 22.0191 10.8615C22.0004 11.0825 21.9576 11.3025 21.8912 11.5157C21.8317 11.517 21.7725 11.5171 21.7134 11.5161C21.7133 11.5161 21.7132 11.516 21.7131 11.516C21.6251 11.5689 21.7458 11.6525 21.758 11.7079C21.8939 12.266 21.0882 12.8822 20.665 13.0755C20.5796 13.1302 20.3114 13.3608 20.2062 13.3032C20.1797 13.2892 20.1405 13.2123 20.1218 13.2164C19.9878 13.33 19.8398 13.4338 19.6795 13.5248C19.4275 13.4943 19.2002 13.5387 18.9593 13.5673C18.8345 13.582 18.7082 13.592 18.5829 13.5838C17.5924 13.5302 16.6103 12.941 16.1516 12.0354C16.0624 11.8649 15.9056 11.6566 15.8899 11.4584C15.8832 11.3756 16.0083 11.3106 15.8844 11.2355C15.9205 11.226 15.9565 11.2166 15.9926 11.2072C15.9296 11.1325 15.835 11.0918 15.811 10.9916C15.7891 10.9085 15.7644 10.6806 15.7788 10.6052C15.785 10.5658 15.8549 10.5792 15.8542 10.5435C15.854 10.5363 15.8525 10.5283 15.8502 10.5195C15.8315 10.4529 15.7604 10.3375 15.7671 10.2598C15.7728 10.1804 15.8693 10.0601 15.8681 10.0006C15.8615 9.78566 15.8117 9.51485 15.9314 9.3033C15.9643 9.24504 16.081 9.20599 16.087 9.1875C16.0986 9.15021 16.0248 9.10155 16.0267 9.07215C16.0362 8.92104 16.2368 8.787 16.3154 8.68389C16.5696 8.33886 16.8812 7.99056 17.2584 7.77667C17.4897 7.63595 17.9086 7.44424 18.1676 7.45305C18.2226 7.45383 18.2315 7.55066 18.2734 7.54084C18.3197 7.53025 18.3324 7.46156 18.3538 7.45196C18.486 7.38827 18.7898 7.29906 18.9593 7.34215C18.9764 7.34615 18.992 7.35127 19.0058 7.35758C19.0345 7.37075 19.0527 7.44665 19.0692 7.44695C19.0776 7.44725 19.0987 7.39658 19.126 7.39275C19.3679 7.36046 19.5429 7.41857 19.7644 7.49414C20.184 7.63503 20.7048 7.80013 21.0299 8.15819C21.1008 8.23553 21.0453 8.39105 21.0557 8.39904C21.079 8.41806 21.1641 8.361 21.226 8.39054C21.435 8.49118 21.5232 8.7888 21.6647 8.93595C21.7365 9.00834 21.9148 9.07622 21.9835 9.16161C22.0403 9.229 22.0633 9.43083 22.1266 9.44822C22.1658 9.45887 22.2721 9.43536 22.2938 9.45857ZM19.69 8.86064C19.7674 8.70501 19.6288 8.80303 19.6242 8.90187C19.6226 8.92371 19.6696 8.90072 19.69 8.86064ZM16.897 10.9808C16.9451 10.9691 16.9932 10.9576 17.0413 10.9461C17.0186 10.9387 16.9959 10.9308 16.9732 10.9226C16.9454 10.9353 16.9178 10.9485 16.8902 10.9618C16.8924 10.9682 16.8947 10.9745 16.897 10.9808Z" fill="#171717"/>
</g>
</g>
</g>
</svg>
