<svg preserveAspectRatio="none" overflow="visible" style="display: block;" width="46.5141" height="23.8214" viewBox="0 0 46.5141 23.8214" fill="none" xmlns="http://www.w3.org/2000/svg">
<g id="Vector 4">
<path d="M0.418086 21.1071V2.50405C0.418086 1.2839 1.42311 0.303281 2.64289 0.333275L44.1838 1.35477C45.4072 1.38486 46.3641 2.41947 46.2987 3.64151L45.3585 21.2231C45.2969 22.3756 44.3444 23.2786 43.1902 23.2786H2.58951C1.39027 23.2786 0.418086 22.3064 0.418086 21.1071Z" fill="#FACE5B"/>
<path d="M5.63703 0.94912C5.47958 0.951762 5.25844 0.911108 5.07294 0.904691C4.29588 0.877439 4.00847 0.84596 3.30557 0.81483C3.13064 0.807077 2.89786 0.799785 2.63162 0.791861C2.10405 0.753372 1.43362 1.0856 1.1194 1.56304C0.786035 2.02713 0.770532 2.50505 0.664333 2.50405C0.664327 2.50405 0.664321 2.50405 0.664315 2.50405C0.661917 2.50405 0.659491 2.50378 0.657036 2.50324C0.607035 2.495 0.570912 2.24994 0.528361 2.20356C0.488305 2.15837 0.116697 2.14142 0.221803 1.71583C0.300587 1.41397 0.579316 0.937621 0.96794 0.635901C1.34907 0.322582 1.79092 0.194724 1.94511 0.153518C2.14079 0.0968071 2.38584 0.0322357 2.65033 0.030803C2.67009 0.0305679 2.68993 0.0304662 2.70981 0.0305229C3.52511 0.0328606 3.95095 0.0659636 4.68717 0C4.97974 0.0514961 5.27232 0.102992 5.56489 0.154488C5.94854 0.143382 6.52781 0.216053 6.76067 0.218561C6.95169 0.220611 7.06446 0.188352 7.26354 0.191619C7.48681 0.195085 7.82872 0.241306 8.2349 0.245599C8.90081 0.252811 9.0215 0.164389 9.4212 0.162612C9.83567 0.160795 10.4786 0.226274 11.0078 0.20713C11.0744 0.198713 11.1409 0.190295 11.2074 0.181877C11.1605 0.157987 11.1136 0.134097 11.0666 0.110206C11.3331 0.106174 11.4464 0.155557 11.691 0.162414C11.9788 0.170509 12.1267 0.12997 12.3203 0.134935C12.4789 0.139042 12.6932 0.179732 12.8989 0.182572C13.1989 0.186895 13.1346 0.134168 13.2962 0.128573C13.3607 0.126441 14.5518 0.127507 14.6189 0.128752C15.1298 0.139297 15.1725 0.210352 15.5797 0.226485C16.7089 0.270948 17.8699 0.242931 18.9153 0.24726C19.3821 0.249176 19.8689 0.265212 20.3338 0.287842C19.5966 0.448877 21.2149 0.628105 20.6153 0.333011C21.1319 0.385599 21.5008 0.318988 21.9912 0.343843C22.3084 0.35999 22.5271 0.40424 22.9803 0.414367C23.7845 0.432088 24.6668 0.343289 24.8931 0.548572C25.838 0.536598 26.6538 0.629105 26.9983 0.461269C27.242 0.456491 27.8633 0.576783 28.1359 0.597754C28.3938 0.617533 30.3737 0.713638 30.6978 0.724253C31.0218 0.734868 31.5891 0.751696 31.8624 0.742949C32.2058 0.732255 32.45 0.555413 33.0552 0.78408C33.7655 0.784247 34.0183 0.79658 34.6779 0.837637C34.7973 0.845065 34.8101 0.877117 34.8799 0.878863C35.0238 0.8824 35.2691 0.864977 35.5259 0.868433C35.9483 0.874136 36.1877 0.946805 36.1431 0.843704C36.4219 0.833458 36.7007 0.823212 36.9795 0.812966C37.0767 0.835043 37.1739 0.85712 37.2711 0.879197C37.4204 0.861415 37.5698 0.843633 37.7192 0.825852C37.5407 0.969071 38.5905 0.907778 38.2524 0.814769C38.7913 0.858557 39.3302 0.902345 39.8691 0.946133C39.7897 1.11194 41.0536 0.994619 40.9497 0.90085C41.0115 0.902501 41.0732 0.904152 41.135 0.905803C41.6745 0.963659 42.1719 0.939419 42.8301 0.985534C43.4882 1.03165 43.426 1.04645 43.6245 1.12849C43.7796 1.12789 43.9348 1.12729 44.0899 1.12668C44.125 1.11849 44.1582 1.11131 44.1899 1.10507C44.5885 1.0436 44.7713 1.14452 44.9995 1.27312C45.222 1.42073 45.5385 1.55816 46.0568 2.08607C46.1933 2.40182 46.4919 3.00338 46.4696 3.65064C46.4664 3.91991 46.4678 4.18453 46.4683 4.41279C46.4684 4.4976 46.4941 4.50042 46.496 4.61347C46.5004 4.88984 46.4297 5.59066 46.5141 5.57108C46.477 5.813 46.44 6.05493 46.4029 6.29686C46.4074 6.49646 46.4119 6.69606 46.4164 6.89567C46.4424 6.89605 46.4684 6.89643 46.4944 6.89681C46.3845 7.29238 46.3849 7.92321 46.3471 8.23237C46.3396 8.29387 46.3031 8.30531 46.283 8.49672C46.2595 8.72043 46.2477 9.13901 46.2222 9.40573C46.2563 9.51177 46.2904 9.61781 46.3245 9.72386C46.3204 10.203 46.2068 10.3655 46.1836 10.6457C46.1795 10.6962 46.1377 11.6187 46.1373 11.6685C46.1333 12.0762 46.2286 11.9657 46.1466 13.141C46.1319 13.3503 46.092 13.5181 46.0806 13.7073C46.0605 14.0417 46.0766 15.0533 46.137 15.136C46.0344 15.5373 46.0094 16.6245 45.9689 16.9429C45.9566 17.039 45.9039 17.0581 45.8771 17.3541C45.8553 17.594 45.8634 18.2154 45.8402 18.52C45.8154 18.8433 45.7659 18.9566 45.7551 19.1015C45.7449 19.2383 45.7731 19.3665 45.7629 19.5532C45.7305 20.136 45.646 20.6609 45.6204 21.1215C45.6182 21.1602 45.6164 21.1986 45.6149 21.2368C45.5887 21.9251 45.3523 22.565 44.9168 23.0181C44.79 23.1234 44.6482 23.2018 44.5026 23.2894C44.1184 23.5213 43.6572 23.6525 43.1902 23.6493C41.715 23.6419 40.1573 23.6264 38.7388 23.6089C37.902 23.5987 35.8211 23.4581 36.3765 23.6927C36.0857 23.7338 33.9713 23.6392 33.5691 23.6378C33.167 23.6364 32.8483 23.6785 32.5323 23.6791C31.5785 23.6809 30.9069 23.6506 29.746 23.6872C29.4462 23.6968 29.1249 23.7467 28.9473 23.7461C28.7335 23.7453 28.5033 23.6971 28.2262 23.694C27.5658 23.6871 26.3349 23.7029 25.7013 23.6946C25.5856 23.693 25.545 23.6506 25.3795 23.6374C24.7352 23.5857 24.013 23.5902 24.1407 23.7253C23.3149 23.6486 22.5509 23.7186 21.7855 23.7229C20.1673 23.7316 17.2194 23.7001 15.8097 23.7569C14.9208 23.7927 14.9435 23.8533 13.6347 23.801C13.3442 23.7894 13.055 23.7738 12.7026 23.7599C11.8767 23.7274 11.119 23.6154 10.4894 23.7503C9.57211 23.7153 8.84153 23.7402 8.16091 23.6248C8.08068 23.6524 8.00044 23.6801 7.92021 23.7078C7.80774 23.7085 7.69528 23.7092 7.58281 23.7098C7.54773 23.6834 7.51265 23.657 7.47757 23.6307C6.6719 23.6235 5.64974 23.732 4.96777 23.7312C4.43932 23.7307 3.52606 23.7214 2.58951 23.708C1.21147 23.7324 0.250279 22.4792 0.145745 21.8202C0.0524701 21.4398 0.0450793 21.2607 0.0496023 21.1071C0.0558633 21.0116 0.0742057 20.9259 0.122991 20.7876C0.114907 20.6588 0.106822 20.5301 0.0987377 20.4013C0.0732912 20.3208 0.0478447 20.2402 0.0223982 20.1596C0.0213805 19.4211 0.0609061 18.5452 0.0605017 17.8417C0.0596875 16.5597 -0.0103471 14.6347 0.0356516 13.3473C0.0472515 13.0245 0.0997277 12.621 0.0991353 12.3049C0.0983211 11.8449 0.011237 11.733 0.00960872 11.1492C0.00696269 10.143 0.108129 8.26911 0.100394 7.31805C0.0981538 7.03557 0.0657511 6.90378 0.0622909 6.70873C0.0474324 5.89084 0.0500711 5.21936 0 4.4351C0.0834515 3.59302 0.191168 3.66577 0.299858 3.4048C0.381891 3.20702 0.572003 2.60057 0.643849 2.51448C0.694325 2.45401 0.759257 2.67979 0.814818 2.59505C0.859188 3.60395 0.810342 4.0278 0.732183 4.84703C0.735298 6.35992 0.738412 7.87282 0.741527 9.38571C0.711198 9.52336 0.68087 9.661 0.650542 9.79864C0.650476 9.79864 0.65041 9.79864 0.650343 9.79864C0.615343 10.3796 0.693447 10.6259 0.711176 10.9392C0.849893 13.3906 0.786535 17.7814 0.748291 21.1071C0.735245 21.7454 1.07351 22.3055 1.49053 22.6086C1.67748 22.7541 2.09937 22.97 2.58951 22.9599C3.46524 22.9536 4.43554 22.9503 4.7321 22.9802C4.85852 22.993 4.89369 23.0398 5.0282 23.0418C6.22989 23.014 7.43158 22.9862 8.63326 22.9584C11.1044 23.031 13.6591 22.971 16.1491 22.9598C22.8858 22.9295 29.5552 22.8926 36.1816 22.9038C37.4623 22.9061 39.0874 22.871 40.3411 22.8936C40.8644 22.903 41.0824 22.9781 41.7698 22.9221C41.777 22.9424 41.7842 22.9626 41.7914 22.9828C42.3106 22.9617 42.6675 22.9244 43.1902 22.9117C43.2582 22.9097 43.3287 22.9046 43.4033 22.8952C43.6351 22.8723 44.0604 22.7435 44.3753 22.4575C44.699 22.181 44.8727 21.788 44.926 21.59C44.9801 21.382 45.0025 21.4674 45.0264 21.2633C45.0279 21.2452 45.0291 21.2259 45.0299 21.2055C45.0479 20.7688 45.045 19.9433 45.0739 19.4019C45.1016 18.8847 45.1917 18.0152 45.2067 17.6172C45.2609 16.1841 45.2798 14.6209 45.3787 13.0959C45.4061 12.6746 45.4841 12.1351 45.4898 12.003C45.5007 11.745 45.4573 11.6656 45.4604 11.4921C45.4766 10.6106 45.6064 9.24219 45.6548 8.37991C45.742 6.82527 45.8233 5.2191 45.9054 3.62047C45.9797 2.64533 45.1202 1.74822 44.1741 1.75029C44.0545 1.74708 43.9353 1.74383 43.8164 1.74054C42.0468 1.69152 39.1057 1.62758 37.4727 1.5516C37.1205 1.5352 37.2157 1.48536 36.9199 1.47808C36.5918 1.47003 36.4133 1.50089 36.2599 1.49997C35.1983 1.49382 32.855 1.47183 31.854 1.41118C31.6634 1.39957 31.526 1.3553 31.4117 1.35264C31.3539 1.35122 31.2225 1.3759 31.0409 1.37428C29.4373 1.3601 28.2689 1.31509 26.6985 1.2669C23.6907 1.17482 20.2038 1.14099 17.0442 1.03521C16.3559 1.01217 15.8857 0.919729 15.7888 0.918162C15.5763 0.914568 15.439 0.965591 15.0083 0.968438C13.5765 0.977396 11.651 0.871999 10.2894 0.86579C9.6168 0.862686 8.69121 0.908982 8.02921 0.907984C7.50047 0.907197 6.25314 0.849436 6.01818 0.873977C5.87523 0.888779 5.80786 0.945956 5.63703 0.94912ZM23.4619 0.471618C23.3655 0.56331 24.3568 0.509513 23.9869 0.449924C23.9035 0.436506 23.4869 0.447813 23.4619 0.471618ZM41.9606 23.4888C41.9697 23.5156 41.9788 23.5425 41.9878 23.5694C42.1177 23.5582 42.2477 23.547 42.3776 23.5358C42.3046 23.5197 42.2315 23.5035 42.1585 23.4874C42.0926 23.4878 42.0266 23.4883 41.9606 23.4888Z" fill="#0A0A0A"/>
</g>
</svg>
