<svg preserveAspectRatio="none" overflow="visible" style="display: block;" width="15.5139" height="11.3174" viewBox="0 0 15.5139 11.3174" fill="none" xmlns="http://www.w3.org/2000/svg">
<g id="Group 648">
<g id="Vector 53">
<path d="M7.61566 0.580437C4.17884 0.586729 1.86299 3.82132 1.04432 5.17467C0.826031 5.53552 0.836861 5.97974 1.07305 6.32913C1.91653 7.57691 4.21972 10.4497 7.61566 10.5765C10.9873 10.7025 13.5746 7.73065 14.5639 6.39404C14.847 6.01157 14.8512 5.50327 14.5771 5.1143C13.598 3.72498 11.0038 0.574233 7.61566 0.580437Z" fill="#FAFAFA"/>
<path d="M0.532526 7.41521C0.494764 7.38605 0.511334 7.29137 0.481829 7.24441C0.381666 7.08301 0.356542 6.98395 0.299841 6.85181C0.276438 6.80731 0.25233 6.75926 0.227049 6.70518C0.107522 6.47746 -0.0760525 5.95303 0.0336276 5.50253C0.129729 5.04933 0.431844 4.78819 0.628469 4.92311C0.62848 4.92312 0.62849 4.92313 0.6285 4.92313C0.63255 4.92558 0.636586 4.92816 0.64061 4.93087C0.715379 4.98354 0.757113 5.11481 0.8462 5.17105C0.934992 5.22667 1.5326 5.5308 1.55523 5.57644C1.57635 5.63373 1.39798 5.77133 1.41995 5.82524C1.4302 5.85228 1.49735 5.86752 1.51782 5.89086C1.54836 5.92656 1.56475 5.95642 1.59189 5.9784C1.64811 6.03947 1.7176 6.09102 1.85094 6.12285C1.82284 6.23415 1.79828 6.34907 1.77307 6.46181C1.86528 6.51852 1.86567 6.70835 1.91035 6.75481C1.945 6.79054 2.01735 6.77059 2.05268 6.80963C2.09371 6.85447 2.09016 6.96878 2.16927 7.04588C2.29494 7.16729 2.45399 7.07449 2.53808 7.13571C2.62675 7.20071 2.66659 7.39034 2.80698 7.44584C2.83309 7.44455 2.85921 7.44321 2.88533 7.4418C2.90928 7.40195 2.93338 7.36222 2.9576 7.3226C3.019 7.35675 2.97372 7.44217 3.01607 7.48787C3.06572 7.54134 3.15394 7.50621 3.18851 7.54107C3.21712 7.57 3.20655 7.65748 3.24734 7.69065C3.3065 7.73906 3.36411 7.65439 3.40661 7.66865C3.423 7.67556 3.67999 7.83469 3.69279 7.84338C3.78992 7.92323 3.70963 8.036 3.77947 8.1106C3.97658 8.31879 4.27626 8.40531 4.50915 8.51308C4.61426 8.5621 4.70738 8.63236 4.79215 8.7108C4.44866 8.91404 4.65527 9.36394 4.81121 8.81097C4.87983 8.94436 5.03259 8.85979 5.12357 8.93821C5.18322 8.98919 5.19435 9.08212 5.29432 9.12999C5.47445 9.21597 5.74927 9.0959 5.6514 9.48134C5.89151 9.5056 6.04018 9.70478 6.22264 9.39752C6.28216 9.3946 6.36635 9.63511 6.42486 9.67921C6.47633 9.72582 6.9335 9.91735 7.01546 9.92922C7.09473 9.94678 7.23274 9.96919 7.30355 9.94504C7.39579 9.91561 7.46844 9.56071 7.59615 9.98917C7.61077 9.98703 7.62462 9.9851 7.63781 9.98341C7.78365 9.96362 7.84416 9.97772 7.99553 10.0183C8.02528 10.0262 8.03123 10.0885 8.0487 10.0878C8.08481 10.0863 8.14287 10.0369 8.20536 10.0265C8.30861 10.0093 8.38217 10.1331 8.34936 9.93436C8.41325 9.89367 8.47555 9.85181 8.53698 9.80874C8.56579 9.8438 8.59509 9.87861 8.62487 9.91318C8.65421 9.86562 8.68257 9.81782 8.70998 9.76982C8.71976 10.0651 8.94305 9.84572 8.82604 9.69866C8.96373 9.73172 9.10618 9.75889 9.25081 9.78053C9.32371 10.1059 9.54909 9.72967 9.4619 9.56712C9.47614 9.56265 9.49055 9.55806 9.50485 9.55345C9.659 9.59348 9.74839 9.48345 9.92095 9.47535C10.0947 9.46565 10.0939 9.49973 10.2035 9.61759C10.2363 9.59308 10.2688 9.56831 10.3011 9.54332C10.3022 9.07781 10.5986 9.74258 10.7661 9.28425C10.9967 9.4564 11.1806 9.18471 11.2922 9.01363C11.3055 8.99364 11.2776 8.95106 11.2932 8.9217C11.3318 8.851 11.5181 8.80002 11.4178 8.66944C11.4964 8.67183 11.5752 8.67322 11.6543 8.67367C11.6778 8.61905 11.7015 8.5637 11.7241 8.5087C11.6927 8.46819 11.6613 8.42768 11.6299 8.38716C11.8176 8.46372 11.9047 8.30814 11.9925 8.28959C12.0102 8.28596 12.0579 8.33839 12.1087 8.32119C12.1691 8.3008 12.2392 8.21359 12.3062 8.18435C12.275 8.1076 12.2441 8.03044 12.2123 7.954C12.2764 7.84028 12.4458 7.96525 12.5121 7.92611C12.5247 7.91911 12.6894 7.7431 12.696 7.72979C12.7483 7.62945 12.6044 7.52748 12.8448 7.33677C12.887 7.30316 12.9626 7.3125 12.9983 7.27851C13.0619 7.21917 13.1379 6.93154 13.0557 6.8311C13.2459 6.85979 13.379 6.60592 13.4684 6.56995C13.4953 6.55989 13.5775 6.62054 13.6428 6.57551C13.6983 6.53626 13.7352 6.36074 13.7955 6.30581C13.8578 6.25055 13.9458 6.27633 13.9736 6.25019C14.0004 6.2245 13.9634 6.15921 13.9947 6.1184C14.0201 6.08581 14.05 6.05953 14.0815 6.03699C14.1385 6.01577 14.218 5.99498 14.2373 5.94782C14.2776 5.84783 14.0755 5.73931 13.9806 5.7181C13.9929 5.70741 14.0346 5.68942 14.0323 5.67651C14.0247 5.63082 14.01 5.5828 13.9832 5.53283C13.7991 5.24356 13.6009 4.93831 13.4147 4.66254C13.2956 4.48027 13.1377 3.88475 12.8896 4.30319C12.7813 4.29956 12.5454 3.77608 12.47 3.70099C12.3986 3.62556 12.2807 3.62664 12.2221 3.57213C12.0421 3.40567 11.9555 3.24463 11.6825 3.10765C11.6122 3.073 11.4871 3.09758 11.4533 3.06874C11.4124 3.03355 11.4272 2.92355 11.3756 2.87551C11.2525 2.76049 10.9849 2.60452 10.8625 2.50362C10.8403 2.48479 10.8785 2.40977 10.8581 2.36493C10.7785 2.18944 10.6146 2.10096 10.5046 2.34622C10.4081 2.11042 10.1723 2.13779 10.0049 2.06292C9.65286 1.89311 9.00535 1.59406 8.65974 1.6419C8.44411 1.66881 8.43426 1.78455 8.15941 1.64363C8.09744 1.6132 8.03661 1.57595 7.95873 1.54278C7.84038 1.49211 7.72705 1.3803 7.61713 1.3834C7.55856 1.38506 7.50334 1.41985 7.45701 1.51467C7.24417 1.45391 7.08738 1.52081 6.89364 1.32011C6.88306 1.37703 6.87316 1.43396 6.86393 1.49089C6.83866 1.49649 6.81326 1.50232 6.78774 1.5084C6.77027 1.45865 6.75254 1.40896 6.73456 1.35935C6.53859 1.38138 6.3593 1.65011 6.21101 1.69671C5.95708 1.76206 5.28762 1.97512 5.02293 2.06044C4.88116 2.10053 4.93527 2.19922 4.74322 2.04862C4.72418 2.07947 4.70546 2.11039 4.68705 2.14137C4.69745 2.1945 4.70826 2.24747 4.71947 2.30027C4.56951 2.40142 4.34686 2.46622 4.20777 2.57597C3.95078 2.77495 3.68366 3.19977 3.39185 3.36818C3.31812 3.40982 3.17146 3.41249 3.11606 3.47306C3.0363 3.5605 3.14229 3.6987 3.0461 3.81078C2.87913 4.00203 2.41933 4.25043 2.28271 4.46141C2.24139 4.52386 2.27269 4.58928 2.24871 4.63354C2.14677 4.82291 2.0444 4.96123 2.0146 5.18478C1.75714 5.27659 1.58981 5.1461 1.37032 5.09113C1.20649 5.04668 0.797329 4.99552 0.664526 4.94162C0.570577 4.90441 0.493507 4.78437 0.387561 4.74758C0.465222 4.45288 0.617897 4.39592 0.87503 4.28921C1.11199 3.92698 1.36716 3.57341 1.63766 3.23496C1.7089 3.24259 1.7801 3.25054 1.85125 3.25884C1.85136 3.25892 1.85146 3.259 1.85156 3.25909C2.01041 3.1775 1.93893 3.02559 1.97314 2.93371C2.27313 2.04226 3.80558 1.0609 4.71443 0.690114C4.8996 0.593535 5.51881 0.25163 5.69394 0.306053C5.738 0.318212 5.77622 0.402848 5.81522 0.394713C6.13672 0.235703 6.47943 0.101815 6.83494 0C7.09696 0.0152168 7.35362 0.0164831 7.61463 0.0180691C8.11175 0.0207345 8.62094 0.0278645 9.10656 0.130886C11.1142 0.566754 12.7584 1.80858 14.0129 3.22373C14.2566 3.49946 14.6078 3.81353 14.7934 4.12837C14.8693 4.2576 14.7888 4.3962 14.9947 4.48978C14.9637 4.51503 14.9326 4.54026 14.9016 4.56548C14.9808 4.62631 15.0645 4.67037 15.1383 4.71881C15.2119 4.78302 15.2827 4.86303 15.3406 4.9774C15.4911 5.19602 15.5685 5.90525 15.4697 6.12475C15.4351 6.23917 15.374 6.17745 15.3437 6.2787C15.3074 6.39953 15.2604 6.63481 15.1516 6.82903C15.1284 6.88174 15.1014 6.93262 15.071 6.97278C14.9828 7.08999 14.7569 7.23729 14.6961 7.33084C14.4705 7.67823 14.2675 8.10084 13.9318 8.3965C13.8402 8.47699 13.6589 8.52051 13.6343 8.54814C13.5852 8.60409 13.6344 8.6872 13.606 8.73125C13.4636 8.95431 13.0886 9.14039 12.8912 9.29687C12.2519 9.81082 11.5349 10.3413 10.7566 10.6821C10.2746 10.9078 9.41035 11.2007 8.89891 11.2027C8.78981 11.2053 8.80232 11.0989 8.71399 11.1121C8.61585 11.1261 8.57114 11.2011 8.52509 11.212C8.31338 11.264 7.92173 11.3279 7.58805 11.3159C7.42267 11.3111 7.27779 11.2915 7.17792 11.2579C7.12087 11.2387 7.08814 11.1538 7.05415 11.1501C7.03699 11.1481 6.99126 11.1982 6.93613 11.1965C6.44703 11.1786 6.10151 11.064 5.65843 10.901C4.81177 10.5917 3.84212 10.1672 3.14 9.5518C2.98625 9.41833 2.98248 9.2072 2.9601 9.19098C2.91083 9.15426 2.81288 9.21284 2.6995 9.15033C2.32316 8.94373 2.00314 8.46922 1.70019 8.21568C1.55018 8.09224 1.2696 7.97773 1.12309 7.84751C1.00571 7.74605 0.819947 7.42212 0.733769 7.40547C0.679163 7.3932 0.57442 7.44709 0.532526 7.41521ZM5.36146 9.26241C5.26035 9.42079 5.54945 9.38372 5.50642 9.25452C5.49713 9.22593 5.38774 9.22177 5.36146 9.26241ZM14.1216 5.19072C14.0801 5.22378 14.0386 5.25682 13.9971 5.28983C14.0338 5.3029 14.0734 5.32012 14.1111 5.33502C14.1258 5.30074 14.1402 5.26614 14.1543 5.23123C14.1425 5.21645 14.1327 5.20436 14.1216 5.19072Z" fill="#171717"/>
</g>
<path id="Ellipse 297" d="M10.6635 4.63653C10.683 4.65528 10.626 4.70676 10.6299 4.73352C10.6452 4.84728 10.6077 4.89894 10.6009 5.00169C10.5991 5.14847 10.7146 5.58855 10.2256 5.58045C10.2256 5.58045 10.2256 5.58045 10.2256 5.58045C10.2209 5.58045 10.2161 5.58042 10.2112 5.58035C10.1193 5.57864 10.0187 5.54936 9.91462 5.5472C9.8105 5.5451 9.13904 5.5558 9.10058 5.53332C9.05063 5.50159 9.21391 5.39819 9.20256 5.37559C9.19542 5.36193 9.13251 5.35392 9.11896 5.33879C9.07536 5.29138 9.11149 5.24944 8.93939 5.24691C9.0192 5.207 9.09771 5.16369 9.17469 5.11699C9.12806 5.10316 9.22274 5.02515 9.20998 5.00962C9.19983 4.99758 9.1324 5.01495 9.12404 5.00281C9.11439 4.98962 9.17309 4.93655 9.14974 4.91271C9.11156 4.87373 8.94645 4.94788 8.91435 4.93585C8.88144 4.9241 8.94447 4.8369 8.87132 4.84009C8.8522 4.84699 8.83318 4.85405 8.81424 4.86128C8.77818 4.88814 8.74194 4.91474 8.70554 4.94109C8.67995 4.93983 8.75323 4.88396 8.74618 4.87053C8.73786 4.85475 8.66162 4.89798 8.65571 4.88908C8.65094 4.88179 8.69963 4.83007 8.68852 4.82277C8.67277 4.81221 8.59573 4.87761 8.57556 4.88253C8.5675 4.8835 8.48502 4.87236 8.48231 4.87122C8.46227 4.85518 8.56079 4.75843 8.5527 4.7329C8.5288 4.66184 8.40296 4.70162 8.33602 4.70515C8.30543 4.70612 8.29018 4.68599 8.28146 4.65431C8.51226 4.38201 8.56352 4.08941 8.30851 4.58223C8.32371 4.49928 8.23079 4.61823 8.22082 4.58438C8.21377 4.56209 8.23706 4.48778 8.21222 4.47826C8.16442 4.46036 8.04812 4.6496 8.16871 4.27425C8.09061 4.31957 8.07342 4.16734 7.96952 4.49994C7.95365 4.51771 7.96491 4.30784 7.95156 4.2767C7.94346 4.24642 7.82407 4.13594 7.7996 4.13064C7.77751 4.12374 7.73775 4.11649 7.71838 4.14685C7.71051 4.15896 7.70327 4.205 7.69649 4.24742C7.68113 4.33609 7.67393 4.40861 7.63522 4.12466C7.5873 4.16111 7.57163 4.15034 7.5195 4.10685C7.5101 4.09905 7.50133 4.03705 7.49616 4.03765C7.48541 4.03902 7.47422 4.08726 7.45709 4.09572C7.4294 4.10951 7.38739 3.98362 7.42835 4.18066C7.41621 4.21731 7.40529 4.25411 7.39589 4.29093C7.38115 4.25447 7.36589 4.21818 7.35012 4.18206C7.35041 4.22558 7.35156 4.26901 7.35359 4.3123C7.28933 4.02768 7.26435 4.21364 7.33528 4.3671C7.28713 4.31855 7.23484 4.27253 7.17863 4.22957C7.06443 3.91819 7.08266 4.22759 7.16773 4.38746C7.16413 4.38877 7.16053 4.3901 7.15694 4.39145C7.08879 4.32589 7.09171 4.40459 7.02655 4.37324C6.95949 4.34331 6.94646 4.31409 6.85484 4.19145C6.84911 4.20513 6.84362 4.21883 6.83836 4.23253C7.02123 4.61196 6.61843 4.00989 6.71954 4.3351C6.52978 4.14985 6.54125 4.32111 6.55933 4.41582C6.56109 4.42703 6.59669 4.46342 6.60184 4.48043C6.6143 4.5209 6.53099 4.51408 6.65346 4.62376C6.60733 4.60374 6.5603 4.58513 6.51243 4.56797C6.5255 4.59862 6.53927 4.62878 6.55373 4.65839C6.59365 4.69056 6.63357 4.72274 6.67347 4.75493C6.52097 4.66538 6.54654 4.74305 6.50082 4.73564C6.49142 4.73428 6.4331 4.69417 6.40905 4.69503C6.38052 4.69595 6.38071 4.73359 6.35141 4.73885C6.4136 4.78715 6.47645 4.8345 6.53995 4.88087C6.56109 4.9281 6.37638 4.83491 6.35196 4.84588C6.34734 4.84773 6.32975 4.91415 6.33256 4.91933C6.35157 4.96136 6.51359 5.02735 6.45063 5.08067C6.4394 5.09034 6.37851 5.07884 6.37172 5.09009C6.35879 5.11099 6.47022 5.21654 6.59262 5.25444C6.43229 5.23122 6.47931 5.31361 6.43092 5.32242C6.41586 5.3254 6.31563 5.3067 6.29063 5.32277C6.27004 5.33639 6.34423 5.38989 6.32848 5.40733C6.31117 5.42637 6.22532 5.42568 6.21828 5.43536C6.21174 5.44462 6.27976 5.4594 6.27842 5.47184C6.27309 5.51033 6.16084 5.54368 6.15875 5.57889C6.15871 5.57941 6.1587 5.57993 6.15871 5.58045C6.15988 5.63099 6.36312 5.66398 6.4553 5.68767C6.44278 5.69691 6.39986 5.70932 6.40041 5.71846C6.40521 5.8299 6.39734 5.96041 6.40055 6.08771C6.3969 6.14084 6.22051 6.40409 6.61183 6.15212C6.68818 6.12663 6.59263 6.32839 6.60962 6.3544C6.62254 6.37724 6.70079 6.34287 6.71317 6.35657C6.75062 6.39765 6.73541 6.47111 6.83613 6.4686C6.86237 6.46772 6.94222 6.40747 6.94825 6.4144C6.95544 6.42301 6.90255 6.50319 6.91138 6.5185C6.9324 6.55458 7.0087 6.57207 7.03032 6.60521C7.03417 6.61154 6.99086 6.68305 6.98588 6.7108C6.96672 6.8196 7.01737 6.83721 7.13741 6.59879C7.10694 6.75488 7.21282 6.65233 7.25249 6.65937C7.3366 6.67916 7.48987 6.77944 7.57874 6.67337C7.63323 6.60726 7.63253 6.48817 7.69365 6.59242C7.69459 6.59393 7.69554 6.59547 7.69649 6.59704C7.70998 6.61936 7.72441 6.64777 7.74272 6.67257C7.78472 6.73549 7.86296 6.94949 7.86058 6.68058C7.92135 6.74125 7.94583 6.68595 8.0438 6.89574C8.03492 6.84159 8.02542 6.78758 8.0153 6.7337C8.02109 6.73071 8.02684 6.72767 8.03254 6.72459C8.04908 6.77403 8.06587 6.8234 8.08291 6.87268C8.13992 6.87046 8.12302 6.64789 8.15435 6.63561C8.21139 6.61683 8.39469 6.60569 8.49247 6.61547C8.54465 6.6221 8.47356 6.53578 8.63792 6.69737C8.63449 6.67939 8.63077 6.66154 8.62679 6.64382C8.59779 6.60246 8.56833 6.56145 8.53842 6.52081C8.56949 6.49049 8.66316 6.50708 8.69322 6.47216C8.7506 6.40656 8.70305 6.23596 8.81767 6.21581C8.84708 6.21048 8.95091 6.23606 8.95969 6.216C8.97235 6.18694 8.82022 6.10684 8.83081 6.07502C8.8488 6.02465 9.07607 5.97422 9.07589 5.90281C9.07589 5.88313 9.01512 5.86122 9.01087 5.84786C8.99216 5.79208 9.00344 5.7487 8.90935 5.69327C9.07759 5.65782 9.28927 5.6695 9.50464 5.65828C9.66728 5.65125 10.0436 5.59466 10.1852 5.58169C10.2849 5.57398 10.4129 5.60301 10.5226 5.59269C10.6088 5.72952 10.5073 5.79021 10.3433 5.8762C10.3283 6.06742 10.2924 6.25821 10.2359 6.44335C10.1736 6.44076 10.1115 6.43698 10.0496 6.43201C10.0495 6.43196 10.0494 6.43192 10.0493 6.43187C9.96103 6.47206 10.0933 6.55477 10.11 6.60538C10.286 7.11685 9.5375 7.63437 9.17137 7.79036C9.0972 7.83612 8.87149 8.04984 8.77271 7.98299C8.74781 7.96639 8.70678 7.8836 8.69049 7.88628C8.58028 7.99363 8.45629 8.09336 8.31994 8.18236C8.09778 8.13832 7.90448 8.17991 7.69649 8.21052C7.5889 8.22629 7.4795 8.23859 7.3708 8.23296C6.51272 8.19894 5.64445 7.69603 5.24758 6.90282C5.17061 6.75413 5.02162 6.57642 5.01568 6.40047C5.01302 6.32693 5.14886 6.2637 5.02096 6.20339C5.05965 6.19344 5.09834 6.18353 5.13705 6.17366C5.07349 6.1114 4.97442 6.0791 4.95173 5.99187C4.93127 5.91971 4.90864 5.72085 4.92403 5.65514C4.93087 5.6208 5.00572 5.63216 5.005 5.60123C5.00481 5.59507 5.00326 5.5881 5.00069 5.58045C4.98079 5.523 4.90382 5.42187 4.90963 5.35387C4.91465 5.28442 5.01467 5.18177 5.01128 5.12985C4.99709 4.9424 4.93118 4.69807 5.04217 4.51428C5.07268 4.4637 5.19095 4.43688 5.19566 4.42066C5.2048 4.38778 5.12469 4.33773 5.12439 4.31094C5.12306 4.17305 5.31674 4.06528 5.38587 3.97609C5.60984 3.6765 5.87694 3.3666 6.20891 3.18192C6.41186 3.06068 6.77806 2.88995 7.00718 2.9104C7.05584 2.91384 7.06816 3.0169 7.10435 3.00842C7.14429 2.99928 7.15256 2.92674 7.17099 2.91735C7.28402 2.85542 7.54864 2.76618 7.69649 2.81163C7.71137 2.81591 7.72494 2.82137 7.7369 2.82809C7.76186 2.84212 7.77723 2.92331 7.79146 2.92351C7.79867 2.92377 7.81735 2.86934 7.84118 2.86495C8.05188 2.82748 8.20431 2.88415 8.39552 2.95323C8.75689 3.08155 9.21927 3.20842 9.49605 3.52833C9.55638 3.59744 9.48685 3.75393 9.49589 3.76045C9.51633 3.77629 9.60451 3.71229 9.66195 3.73447C9.85581 3.81103 9.91539 4.08287 10.0466 4.20476C10.1131 4.26483 10.2913 4.31266 10.3568 4.38587C10.4108 4.44359 10.4221 4.62451 10.4879 4.63636C10.5285 4.64367 10.6419 4.61659 10.6635 4.63653ZM8.22304 4.38476C8.30328 4.21699 8.18243 4.33357 8.16717 4.43515C8.16303 4.45763 8.20189 4.42802 8.22304 4.38476ZM6.1071 5.93609C6.1587 5.92389 6.21031 5.91175 6.26193 5.89969C6.23844 5.8956 6.21492 5.89102 6.19143 5.88612C6.16123 5.8976 6.13115 5.9095 6.10115 5.92167C6.10311 5.92649 6.1051 5.9313 6.1071 5.93609Z" fill="#171717"/>
</g>
</svg>
