<svg preserveAspectRatio="none" overflow="visible" style="display: block;" width="9.75854" height="26.8754" viewBox="0 0 9.75854 26.8754" fill="none" xmlns="http://www.w3.org/2000/svg">
<g id="Group 664">
<g id="Union">
<path d="M4.90837 9.64833C6.36122 8.44644 8.53485 9.64768 8.2902 11.5175L6.67497 23.8622C6.53962 24.8955 5.65853 25.6686 4.61637 25.6688H3.25993C2.03503 25.6687 1.0764 24.6137 1.19352 23.3944L2.22966 12.6513C2.28237 12.1047 2.54882 11.601 2.97184 11.2509L4.90837 9.64833Z" fill="white"/>
<path d="M2.34581 9.64056C2.37014 9.59486 2.49009 9.63383 2.53717 9.60215C2.73511 9.47032 2.84971 9.47131 3.04129 9.36711C3.32543 9.2127 3.9618 8.5044 4.43352 9.07439C4.43354 9.07441 4.43355 9.07442 4.43356 9.07444C4.43818 9.08003 4.44279 9.08574 4.44739 9.09157C4.53471 9.20227 4.57109 9.37189 4.66357 9.50228C4.75609 9.63271 5.41931 10.4202 5.36855 10.5373C5.29008 10.7012 4.8169 10.7502 4.75657 10.8153C4.71537 10.8599 4.71798 10.9792 4.66932 11.041C4.5124 11.2404 4.36879 11.2704 4.35874 11.6087C4.20447 11.5625 4.0502 11.5162 3.89593 11.47C3.8457 11.5922 3.59689 11.5687 3.54852 11.6214C3.50885 11.6646 3.55015 11.768 3.50662 11.8104C3.49495 11.8219 3.47719 11.8295 3.45578 11.8355C3.40706 11.839 3.32264 11.8302 3.28791 11.8854C3.21311 12.0074 3.4239 12.1941 3.41873 12.2623C3.41575 12.3299 3.2312 12.3563 3.29145 12.4747C3.3163 12.4951 3.34159 12.5147 3.3673 12.5335C3.4346 12.5492 3.50151 12.5662 3.56798 12.5846C3.58844 12.6225 3.45012 12.5928 3.43896 12.6243C3.42626 12.6613 3.55401 12.7057 3.54994 12.7256C3.5471 12.7395 3.47168 12.7488 3.44808 12.7687C3.44255 12.7791 3.43926 12.7898 3.43938 12.8007C3.43981 12.8924 3.59568 12.8874 3.61977 12.9391C3.62908 12.9596 3.67925 13.3285 3.67852 13.3489C3.66966 13.5042 3.45764 13.4974 3.42732 13.619C3.34406 13.9564 3.48045 14.3241 3.51427 14.6468C3.52943 14.7909 3.50296 14.9372 3.45566 15.0749C2.93777 14.8009 2.47067 15.2517 3.33228 15.1494C3.1971 15.2946 3.41419 15.4277 3.36134 15.5727C3.32693 15.6664 3.20351 15.7217 3.19333 15.8592C3.17602 16.1034 3.48293 16.402 2.87499 16.4141C2.95339 16.7103 2.71143 16.9369 3.23221 17.0911C3.25751 17.168 2.92317 17.3265 2.87225 17.4051C2.82426 17.4794 2.62364 18.0658 2.60621 18.1632C2.58877 18.2606 2.56353 18.4316 2.60212 18.5188C2.64971 18.6283 3.19309 18.7539 2.53174 18.8768C2.56307 19.0969 2.53727 19.1717 2.44322 19.3645C2.4262 19.3994 2.33027 19.3943 2.32814 19.4155C2.32394 19.459 2.38739 19.54 2.3885 19.6186C2.39026 19.7479 2.18219 19.8015 2.49062 19.8169C2.53396 19.9062 2.57731 19.9955 2.62066 20.0848C2.55854 20.1086 2.49643 20.1325 2.43431 20.1564C2.49455 20.2077 2.55478 20.259 2.61501 20.3103C2.1758 20.2145 2.40739 20.5572 2.67228 20.4787C2.56459 20.6333 2.45691 20.7879 2.34922 20.9426C1.84644 20.871 2.25633 21.2959 2.534 21.2902C2.53179 21.3089 2.52959 21.3276 2.52739 21.3462C2.37737 21.4971 2.47265 21.6581 2.3633 21.849C2.25396 22.0399 2.2066 22.0164 1.96847 22.0547C1.97725 22.103 1.98602 22.1512 1.99479 22.1995C2.60779 22.5074 1.50951 22.3575 1.95726 22.8266C1.57552 22.9156 1.6985 23.2233 1.79837 23.4527C1.80711 23.4664 1.81586 23.4795 1.82429 23.492C1.8372 23.511 1.91502 23.5161 1.93806 23.539C1.99138 23.5924 1.90021 23.7344 2.15136 23.7041C2.0827 23.7505 2.01691 23.8044 1.95525 23.8656C2.00792 23.894 2.06146 23.9183 2.1153 23.9382C2.19047 23.9153 2.26565 23.8924 2.34083 23.8696C2.10091 24.0058 2.24274 24.0787 2.21049 24.1505C2.20423 24.1661 2.1095 24.2196 2.103 24.2674C2.09507 24.3243 2.168 24.3759 2.17454 24.4383C2.28216 24.3811 2.3868 24.3192 2.48817 24.253C2.58064 24.2601 2.37572 24.5017 2.40173 24.5587C2.40475 24.5711 2.55738 24.6591 2.56972 24.6556C2.66463 24.6494 2.77699 24.4136 2.90575 24.5299C2.92973 24.5501 2.92552 24.6471 2.9547 24.6594C3.01169 24.6858 3.19833 24.4971 3.20922 24.2989C3.21671 24.3687 3.23543 24.4114 3.26018 24.4372C3.40745 24.5028 3.59759 24.4655 3.66752 24.5163C3.69692 24.5381 3.70355 24.6942 3.79392 24.7274C3.86718 24.7545 4.05585 24.6295 4.14876 24.6504C4.24738 24.6732 4.2826 24.8043 4.32679 24.8136C4.36854 24.8222 4.40702 24.7164 4.46391 24.717C4.51624 24.7181 4.56712 24.7336 4.61644 24.7551C4.68203 24.8067 4.75803 24.8859 4.82061 24.8782C4.95556 24.8614 4.96774 24.5245 4.96639 24.3716C4.99012 24.3832 5.03626 24.4356 5.05468 24.4266C5.27879 24.3232 5.52025 24.1317 5.65664 23.8717C5.67423 23.8389 5.72329 23.7967 5.76703 23.7432C5.89693 23.4876 6.016 23.2026 5.49061 23.2572C5.37883 23.1533 5.74606 22.5526 5.76621 22.4318C5.78631 22.3111 5.67269 22.1984 5.6833 22.1028C5.71546 21.8144 5.83291 21.6237 5.76884 21.2591C5.75194 21.1648 5.61511 21.0484 5.62386 20.995C5.63474 20.9308 5.78843 20.8803 5.80855 20.7979C5.85538 20.6014 5.8564 20.2239 5.90643 20.036C5.91588 20.0017 6.04445 20.0061 6.09067 19.9613C6.27116 19.7873 6.28622 19.5676 5.8758 19.5531C6.13854 19.3341 5.95877 19.0761 5.97612 18.8436C6.01375 18.3519 6.22473 17.475 6.11004 17.0274C6.03768 16.7452 5.85497 16.7283 6.06352 16.354C6.10978 16.2709 6.16813 16.1898 6.22354 16.0889C6.35383 15.8525 6.71961 15.6679 6.33973 15.425C6.4809 15.162 6.4353 14.9319 6.8083 14.7718C6.72845 14.7367 6.6486 14.7017 6.56875 14.6666C6.57113 14.6324 6.57352 14.5982 6.5759 14.564C6.65646 14.5638 6.73702 14.5636 6.81758 14.5633C6.87071 14.3231 6.58563 13.9721 6.61493 13.7667C6.66372 13.4222 6.9064 12.5503 7.05604 12.2372C7.13549 12.071 6.96714 12.0395 7.32872 11.9857C7.30956 11.9436 7.29039 11.9016 7.27122 11.8596C7.19808 11.8253 7.12493 11.791 7.05179 11.7567C7.06632 11.6325 7.12024 11.5002 7.16977 11.3708C7.20248 11.3193 7.2285 11.2671 7.22751 11.2201C7.22234 11.0009 6.9523 10.8799 6.95854 10.6781C6.96076 10.6245 7.03229 10.4687 6.99002 10.4331C6.92863 10.3825 6.75277 10.5791 6.69065 10.5438C6.60344 10.4824 6.41856 10.1007 6.24022 10.127C6.1939 10.1332 6.1775 10.2323 6.15143 10.2446C6.04418 10.2973 5.94487 10.3178 5.91891 10.4943C5.72043 10.3088 5.54664 10.0364 5.32249 9.7881C5.15638 9.59634 4.64988 9.25543 4.47634 9.1194C4.35843 9.0185 4.31087 8.80399 4.17653 8.69654C4.46724 8.29978 4.76879 8.31229 5.19101 8.40041C5.82438 8.15189 6.54727 8.13944 7.18565 8.345C7.21467 8.45137 7.23785 8.55768 7.25548 8.66354C7.2554 8.66373 7.25533 8.66391 7.25525 8.6641C7.42669 8.84893 7.61463 8.68723 7.76213 8.71117C8.67832 8.77374 9.72001 10.3555 9.35814 11.6571C9.24444 12.1321 9.12035 12.5809 9.05315 12.9349C9.01285 13.148 9.04405 13.8624 8.87703 13.9904C8.83357 14.0235 8.69191 14.0157 8.68049 14.0555C8.71648 14.429 8.75246 14.8024 8.78844 15.1758C8.47294 15.8928 8.5521 16.6871 8.48739 17.4426C8.31244 19.4869 8.15975 21.5134 7.86461 23.508C7.84163 23.6627 7.83446 23.8364 7.82655 24.0128C7.79845 24.4196 7.67454 24.8421 7.46601 25.1363C7.31507 25.3444 7.08389 25.2916 7.01698 25.6388C6.96826 25.6017 6.91965 25.5643 6.87117 25.5268C6.75618 25.7694 6.72071 25.9978 6.47309 26.1964C6.27586 26.3779 5.62679 26.68 5.38637 26.6942C5.26491 26.7109 5.28475 26.5894 5.17781 26.611C5.05432 26.6362 4.83794 26.7389 4.6167 26.7847C4.54947 26.8066 4.48448 26.8226 4.42914 26.8226C4.27156 26.8226 4.00592 26.6909 3.88477 26.7099C3.68321 26.7412 3.47333 26.7998 3.26 26.8485C2.87474 26.9065 2.4486 26.876 2.08086 26.7055C1.88787 26.619 1.72811 26.3651 1.67625 26.3381C1.56914 26.2853 1.4613 26.3862 1.37976 26.3537C0.951716 26.1911 0.607753 25.561 0.429407 25.2018C0.11456 24.6329 -0.0458431 23.9467 0.0114611 23.2808C0.045122 22.8283 0.0786324 22.3764 0.134302 21.9411C0.202553 21.4066 0.263245 20.5132 0.41884 20.0286C0.452423 19.9242 0.606768 19.9678 0.615412 19.8781C0.624962 19.7788 0.524034 19.7147 0.519934 19.6674C0.490873 19.3402 0.452042 18.6202 0.589784 18.3272C0.616187 18.2714 0.743316 18.2413 0.746207 18.2067C0.747897 18.1892 0.667716 18.1415 0.664434 18.0857C0.635273 17.5927 0.718408 17.2434 0.793105 16.7703C0.935536 15.8643 0.881109 14.7933 1.05801 13.8441C1.09651 13.6373 1.35377 13.5177 1.35414 13.4882C1.35544 13.4233 1.19566 13.3663 1.16779 13.2321C1.12497 13.0224 1.15325 12.7862 1.19089 12.551C1.24539 12.1493 1.39473 11.7787 1.50223 11.4661C1.59352 11.1772 1.68331 10.6913 1.89589 10.4225C1.94306 10.3607 2.02175 10.2861 2.1133 10.2133C2.24977 10.1073 2.42239 9.99332 2.41988 9.91101C2.41798 9.84069 2.32 9.69083 2.34581 9.64056ZM3.04254 15.9923C2.76215 15.9365 2.96855 16.2589 3.13139 16.1611C3.16805 16.1391 3.11533 16.0068 3.04254 15.9923ZM5.68635 24.5566C5.62475 24.5036 5.56336 24.4503 5.50218 24.3968C5.51183 24.4365 5.51968 24.4771 5.52566 24.5186C5.56981 24.5437 5.61491 24.5676 5.66092 24.5902C5.66957 24.5791 5.67805 24.5679 5.68635 24.5566Z" fill="black"/>
</g>
<g id="Union_2">
<path d="M6.44252 1.52239C8.29355 1.26856 9.51172 3.39822 8.35463 4.86516L8.18568 5.08001C7.79206 5.57892 7.19128 5.86995 6.5558 5.87005H5.45228C3.85159 5.8699 2.853 4.13488 3.65736 2.75091L3.68275 2.70794C4.00401 2.15529 4.56214 1.7812 5.19545 1.69426L6.44252 1.52239Z" fill="white"/>
<path d="M5.45408 0.00312817C5.46998 -0.0189446 5.51075 0.0829409 5.53344 0.0854771C5.62863 0.0972174 5.67274 0.165661 5.76154 0.195687C5.89323 0.240317 6.23975 0.0512626 6.34077 0.784209C6.34077 0.784227 6.34078 0.784245 6.34078 0.784264C6.34177 0.79145 6.34274 0.798725 6.34368 0.80609C6.36164 0.9459 6.35155 1.10262 6.3687 1.26118C6.38587 1.41979 6.52988 2.43918 6.49362 2.5026C6.43999 2.58699 6.25032 2.34666 6.21776 2.36296C6.19551 2.37416 6.17954 2.47084 6.15195 2.49142C6.06298 2.55774 6.00326 2.49689 5.95123 2.76069C5.89825 2.63275 5.84526 2.50482 5.79227 2.37688C5.75549 2.44465 5.66275 2.27907 5.63658 2.2925C5.61511 2.30354 5.61635 2.41032 5.59351 2.41844C5.56797 2.42814 5.51185 2.32044 5.46623 2.34411C5.39137 2.3824 5.41511 2.65811 5.37271 2.69938C5.36249 2.70931 5.34942 2.70946 5.33476 2.70516C5.30909 2.68772 5.26491 2.62317 5.2551 2.70161C5.25742 2.7322 5.26008 2.76274 5.26309 2.79322C5.28074 2.85973 5.29784 2.92637 5.3144 2.99314C5.31024 3.0268 5.27318 2.89076 5.25996 2.89144C5.24443 2.89224 5.27339 3.02291 5.26559 3.02453C5.25924 3.02573 5.21804 2.92631 5.21003 2.93601C5.19876 2.9495 5.25225 3.09473 5.25601 3.12407C5.2559 3.13568 5.24883 3.23037 5.24874 3.23216C5.23696 3.24415 5.14413 3.05388 5.11856 3.04601C5.04612 3.02622 5.09023 3.20221 5.10474 3.27347C5.10978 3.30624 5.09063 3.30635 5.05532 3.29281C4.72219 2.86291 4.35512 2.62872 4.96819 3.21596C4.8669 3.14598 5.01874 3.31824 4.97931 3.30428C4.95276 3.29614 4.85683 3.22719 4.84557 3.24609C4.82233 3.28573 5.08819 3.49005 4.57119 3.17759C4.58535 3.20309 4.58451 3.21761 4.58078 3.22986C4.57 3.25223 4.56164 3.2667 4.55662 3.28206C4.55631 3.30683 4.5911 3.3542 4.86805 3.50391C4.89388 3.52462 4.59439 3.41489 4.5474 3.41516C4.50413 3.40805 4.32705 3.47914 4.31463 3.50195C4.30126 3.52049 4.28416 3.55686 4.32692 3.58294C4.37859 3.62258 4.92502 3.70354 4.27959 3.65443C4.32627 3.70742 4.30708 3.71743 4.23046 3.76091C4.21669 3.76872 4.12071 3.76813 4.12055 3.77345C4.12039 3.7846 4.19128 3.80247 4.20038 3.82015C4.21525 3.84832 4.01506 3.8788 4.3227 3.85653C4.3754 3.87113 4.42839 3.8833 4.48147 3.89295C4.42288 3.9048 4.36444 3.91766 4.30619 3.93152C4.37178 3.93305 4.43729 3.93286 4.50266 3.93109C4.05932 3.98728 4.33181 4.01715 4.57947 3.94653C4.49361 3.99011 4.41065 4.04226 4.33163 4.10219C3.84144 4.23599 4.30312 4.20727 4.55858 4.09947C4.55932 4.10281 4.56009 4.10615 4.56087 4.10949C4.44526 4.18589 4.55855 4.1723 4.49311 4.24547C4.42975 4.3223 4.38483 4.34192 4.1857 4.46478C4.20355 4.46989 4.22138 4.47462 4.23918 4.47895C4.81859 4.20223 3.87112 4.77974 4.34792 4.60554C4.04461 4.87342 4.28614 4.83653 4.41304 4.79115C4.42816 4.7865 4.48464 4.73265 4.50789 4.72207C4.5629 4.69617 4.53273 4.80573 4.70193 4.61908C4.66401 4.6832 4.62846 4.74907 4.59555 4.81665C4.63675 4.79158 4.67693 4.7653 4.71598 4.73782C4.76466 4.67613 4.81334 4.61446 4.86204 4.55279C4.71454 4.77782 4.81357 4.72261 4.79334 4.78582C4.78959 4.79891 4.72996 4.88952 4.72621 4.92237C4.72172 4.96139 4.76609 4.95105 4.76695 4.99051C4.8339 4.8905 4.89899 4.78933 4.96217 4.68706C5.01536 4.64193 4.8798 4.92838 4.88899 4.96027C4.89047 4.96624 4.96131 4.97288 4.96693 4.96737C5.01474 4.92844 5.1035 4.67488 5.14534 4.7494C5.15315 4.7628 5.13678 4.85536 5.14754 4.86224C5.16863 4.87559 5.27456 4.6817 5.30966 4.48864C5.2816 4.73324 5.35713 4.64252 5.36634 4.71374C5.3698 4.73585 5.3584 4.89165 5.37637 4.9261C5.39092 4.95292 5.4327 4.84268 5.45233 4.84937C5.45422 4.84972 5.45611 4.8504 5.45791 4.85144C5.49656 4.87421 5.51036 5.00534 5.52768 5.01461C5.54403 5.02323 5.55912 4.91738 5.58141 4.91799C5.65101 4.92168 5.71403 5.09206 5.76904 5.09519C5.84859 5.10012 5.91886 4.78672 5.98542 4.64757C6.00194 4.66789 6.01817 4.73515 6.03549 4.73577C6.20088 4.74338 6.38262 4.77951 6.55576 4.82647C6.58118 4.84034 6.60729 4.85422 6.6338 4.86764C6.67497 4.89919 6.91192 5.28611 6.72589 4.59911C6.70721 4.47781 6.88137 4.72531 6.91305 4.71629C6.93683 4.71162 6.90273 4.58767 6.91545 4.5798C6.95355 4.55613 7.03423 4.61687 7.02254 4.49191C7.01927 4.45926 6.94265 4.32862 6.94851 4.32646C6.95598 4.32402 7.05225 4.43407 7.0688 4.43268C7.10739 4.42912 7.11678 4.35483 7.15427 4.3508C7.16148 4.35026 7.25707 4.43552 7.29325 4.45515C7.38434 4.50518 7.4282 4.49919 7.3564 4.42552C7.32088 4.3806 7.25061 4.31609 7.13372 4.23102C7.35532 4.29119 7.28375 4.12861 7.30413 4.03887C7.30441 4.03227 7.30435 4.02789 7.3055 4.0245C7.33274 3.95208 7.48061 3.86898 7.33149 3.76499C7.23767 3.70146 7.05754 3.66656 7.21852 3.67034C7.25433 3.66992 7.3024 3.66987 7.34543 3.66422C7.4463 3.65884 7.78774 3.62211 7.37947 3.59196C7.48507 3.55498 7.40918 3.53966 7.75056 3.45835C7.66694 3.46474 7.58345 3.47228 7.5001 3.48097C7.49732 3.47633 7.4945 3.47173 7.49164 3.46716C7.57014 3.45246 7.64855 3.43728 7.72688 3.42162C7.7389 3.36507 7.40702 3.39463 7.40194 3.37261C7.39485 3.32915 7.45226 3.15383 7.50055 3.03832C7.52765 2.97721 7.39133 3.08089 7.65822 2.85099C7.63338 2.85877 7.60878 2.86705 7.58445 2.87579C7.5211 2.91984 7.45838 2.96473 7.3963 3.01044C7.37087 2.98409 7.42497 2.867 7.39295 2.83891C7.32991 2.78343 7.13705 2.90623 7.15237 2.75817C7.15551 2.72002 7.20445 2.56708 7.1848 2.56013C7.15649 2.55017 7.049 2.79074 7.02403 2.78648C6.9895 2.77997 6.96277 2.45704 6.88968 2.47191C6.87071 2.47628 6.85195 2.5729 6.84011 2.58226C6.7916 2.62274 6.74941 2.61395 6.71382 2.76658C6.65988 2.51616 6.63301 2.19194 6.58146 1.86625C6.54524 1.6199 6.39891 1.05785 6.35131 0.845308C6.32024 0.695415 6.3325 0.495605 6.29603 0.330903C6.46447 0.174557 6.56822 0.31746 6.71194 0.551381C6.97219 0.539242 7.23947 0.560589 7.50166 0.61874C7.50251 0.713719 7.50106 0.808418 7.4973 0.902744C7.49724 0.902937 7.49719 0.90313 7.49713 0.903323C7.55553 1.03044 7.66314 0.818243 7.73439 0.78655C8.46385 0.453222 9.1865 1.56368 9.33714 2.07163C9.39164 2.17515 9.66975 2.50074 9.55002 2.63225C9.5202 2.6652 9.38764 2.71492 9.38833 2.73708C9.52704 2.89378 9.65274 3.07344 9.75854 3.27439C9.58454 3.71327 9.71793 4.13993 9.6007 4.58039C9.51122 4.9139 9.36344 5.23184 9.17505 5.51197C9.12761 5.5888 9.07902 5.6665 9.03001 5.74374C8.62311 6.34276 7.97201 6.7899 7.25441 6.92639C7.04622 6.96816 6.78276 7.08609 6.55591 7.04842C6.54198 7.04491 6.52848 7.04025 6.51533 7.03424C6.45295 7.0059 6.42695 6.77872 6.345 6.94804C6.34414 6.88683 6.34328 6.82563 6.34242 6.76442C6.2709 6.83831 6.22519 6.97758 6.14501 6.99174C6.07748 7.00344 5.89883 7.01253 5.83916 6.98913C5.80821 6.97744 5.81974 6.86307 5.79089 6.86365C5.74149 6.86549 5.63595 7.02361 5.56778 7.02361C5.53599 7.02361 5.49298 6.98869 5.45224 6.95741C5.39415 6.92797 5.3417 6.9 5.30741 6.90771C5.05791 6.96556 4.72199 7.11022 4.45056 6.96997C4.3758 6.93146 4.33117 6.75679 4.30806 6.75206C4.26112 6.74311 4.19362 6.87101 4.15529 6.87511C3.956 6.89525 3.79636 6.61573 3.66981 6.52156C3.24146 6.21759 2.81026 5.83668 2.58203 5.36035C2.42984 5.07047 2.23329 4.54065 2.30908 4.22508C2.32369 4.15806 2.48258 4.15587 2.47687 4.10531C2.47094 4.0496 2.36249 4.02704 2.35193 3.99997C2.27055 3.82017 2.19165 3.36299 2.34193 3.20082C2.36915 3.17026 2.49529 3.17175 2.49906 3.15246C2.5012 3.14277 2.42384 3.10167 2.42324 3.06752C2.41972 2.76741 2.54669 2.57643 2.69883 2.34635C2.72303 2.31012 2.747 2.27316 2.77105 2.23556C2.7841 2.21545 2.79316 2.20147 2.80199 2.18726C3.0391 1.78343 3.35508 1.2971 3.82461 1.0956C3.94198 1.04453 4.13033 1.22291 4.14194 1.21379C4.17038 1.19344 4.11529 1.03618 4.16723 0.966509C4.3466 0.731345 4.73592 0.794001 4.95403 0.677261C4.98297 0.661669 5.01335 0.634901 5.04563 0.602929C5.10164 0.51625 5.15974 0.383429 5.21302 0.341503C5.27041 0.296306 5.42904 0.357136 5.44419 0.262493C5.45347 0.205298 5.43696 0.0279716 5.45408 0.00312817ZM4.72221 3.18109C4.4978 3.00571 4.65274 3.19506 4.79079 3.26457C4.82097 3.28133 4.7799 3.22715 4.72221 3.18109ZM6.32224 5.23391C6.32116 5.15266 6.32008 5.07141 6.319 4.99015C6.30351 5.02396 6.28802 5.05777 6.27253 5.09159C6.28124 5.14043 6.28994 5.18928 6.29865 5.23812C6.30651 5.23672 6.31438 5.23532 6.32224 5.23391Z" fill="black"/>
</g>
</g>
</svg>
